<?xml version="1.0" encoding="UTF-8"?><svg id="Layer_1" xmlns="http://www.w3.org/2000/svg" width="48.2mm" height="48.42mm" viewBox="0 0 136.63 137.26"><defs><style>.cls-1{fill:#fff;}.cls-1,.cls-2{stroke-width:0px;}.cls-2{fill:#5fdd9d;}</style></defs><polygon class="cls-2" points="135.29 135.47 123.51 137.26 111.27 137.06 99.03 136.61 86.79 136.61 74.55 134.95 62.31 135.26 50.07 137.2 37.82 137.15 25.58 135.41 13.33 136.13 .39 136.62 1.58 123.65 1.3 111.37 0 99.1 1.83 86.82 .47 74.55 2.3 62.27 2.39 49.99 1.65 37.71 .62 25.43 .85 13.15 1.65 1.43 13.33 .3 25.57 .52 37.81 .44 50.05 .59 62.29 1.91 74.53 .66 86.77 1.75 99.02 .98 111.26 2.17 123.51 1.41 136.63 0 134.54 13.15 134.76 25.42 135.44 37.7 135.25 49.97 135.88 62.25 136.58 74.53 135.82 86.8 135.71 99.08 136.15 111.36 136.34 123.66 135.29 135.47"/><polygon class="cls-1" points="29.32 76.26 27.41 79.43 26.71 83.31 27.08 87.24 28.55 90.85 29.93 94.36 31.01 98.21 34.21 100.59 36.66 104.27 40.31 106.67 43.77 109.26 47.15 112.11 51.32 113.51 55.49 114.72 61.19 115.65 62.02 119.91 61.29 124.11 62.29 128.15 67.01 127.71 71.59 127.98 72.82 124.13 73.03 120.02 72.82 115.73 77.17 115.9 81 114.64 85.02 114.53 88.77 113.16 92.74 111.87 95.93 109.19 99.14 106.63 102.3 104.01 105.34 101.14 106.5 97.05 107.89 93.31 108.52 89.4 108.76 85.54 109.53 81.65 108.2 77.95 106.47 74.43 102.37 75.02 98.67 76.96 94.75 77.98 90.58 78.31 86.78 79.83 83.26 81.95 79.47 83.56 76.87 86.76 74.28 89.79 73.91 85.87 74.99 81.43 74.93 76.94 74.87 72.82 78.53 70.79 82.58 69.41 86.68 67.97 90.25 65.51 93.21 62.38 96.28 59.34 98.02 55.4 99.87 51.7 100.2 47.6 99.67 43.52 99.17 39.51 99.82 35.37 98.44 31.47 97.41 27.55 96.64 23.58 96.52 19.38 94.83 15.63 92.2 12.81 88.88 15.55 86.47 19.19 83.67 22.49 80.62 25.7 78.02 22.11 76.2 18.06 73.94 14.27 71.04 10.92 68.02 8.55 65.1 10.93 63.74 14.69 61.47 17.88 59.82 21.41 58.42 24.41 56.65 21.41 53.53 18.92 51.98 15.22 48.48 13.33 45.35 11.6 43.18 15.04 40.98 18.71 39.61 22.76 38.27 26.8 37.42 30.99 37.19 35.25 36.82 39.45 36.17 43.67 36.54 47.91 36.95 52.15 38.62 56 40.47 59.68 42.5 63.42 45.68 66.27 49.38 68.38 53.48 69.43 57.41 70.98 61.24 71.27 62.4 74.89 61.56 78.72 62.13 82.51 62.8 86.29 62.31 90.12 59.49 87.05 56.84 83.76 53.6 80.97 49.63 79.4 45.49 78.51 41.5 77.33 37.46 76.12 33.27 75.74 29.32 76.26"/></svg>