<?xml version="1.0" encoding="UTF-8"?><svg id="Layer_1" xmlns="http://www.w3.org/2000/svg" width="114.97mm" height="49.7mm" viewBox="0 0 325.9 140.87"><defs><style>.cls-1,.cls-2{stroke-width:0px;}.cls-2{fill:#5fdd9d;}</style></defs><path class="cls-2" d="m117.67,95.16h-61.2c3.77-31.73,4.22-62.53.45-86.08,17.04,0,38.15-1.37,57.73-2.87,51.46-3.96,51.46-1.17,51.46,12.93,0,13.12-10.2,33.79-17.85,50.68-5.31,11.73-2.55,8.45-5.1,25.34-7.65.1-17.85,0-25.5,0Zm-11.73-43.18c3.51,0,6.76-4.17,6.76-11.2,0-9.76-3.25-14.36-6.76-14.36-3.77,0-6.5,4.59-6.5,14.36,0,7.03,2.73,11.2,6.5,11.2Z"/><path class="cls-2" d="m49.28,95.16H.51c3.9-33.02,6.45-37.53,2.55-61.94h48.76c4.65,16.89,2.1,47.86-2.55,61.94Z"/><path class="cls-2" d="m265.04,95.23c-.48-4.06-1.16-8.1-1.98-12.11-.25-3.63-3.47-19.42-5.1-27-1.81-8.46-2.96-17.45-.6-25.74,1.01-3.55,2.64-6.85,3.68-10.39,1.04-3.54,1.75-10.36.3-13.72h-19.71l-65.31-1.2c3.9,24.26-17.26,56.85-21.17,90.16h45.64c-1.17-13.64-1.69-21.54-1.69-27.42,0-5.31,2.08-8.76,5.72-8.76s5.72,3.45,5.72,8.76c0,5.89-.39,13.78-1.69,27.42h56.17Zm-60.2-49.68c-4.16,0-5.46-4.16-5.46-9.62,0-6.6,1.56-12.2,5.72-12.2s5.46,5.6,5.46,12.2c0,5.45-1.69,9.62-5.72,9.62Z"/><path class="cls-2" d="m49.38,14.95c0-10.54-8.93-14.95-20.63-14.95C14.59,0,2.58,3.74,2.58,14.28c0,10.88,12.01,14.95,26.17,14.95,11.7,0,20.63-3.4,20.63-14.28Z"/><path class="cls-2" d="m266.73,53.45c11.45-.02,18.72.44,30.16.42,4.27,0,15.22.97,19-1,3.84-2,4.18-7.28,5.71-11.33s1.78-10.37,2.29-14.67c-15.31-1.27-30.35-.55-45.66-1.82-3.27-.27-7.65.95-10.34,2.82-3.5,2.43-6.3,5.84-5,13l3.84,12.58Z"/><path class="cls-1" d="m1.44,104.23h15.48c8.82,0,10.44,5.82,10.98,13.5.12,1.98.42,4.08,1.86,4.08,1.56,0,1.98-2.1,2.22-4.08,1.08-7.68,2.76-13.5,11.58-13.5l24.34-.36c0,17-10.66,26.16-8.02,36.36h-21.9c1.68-8.16,3.54-21-.24-21-3.24,0-2.58,12.54-3.06,21h-13.68c-.48-8.46.18-21-3.06-21-3.78,0-1.92,12.84-.24,21H0c2.64-10.2,3.06-25.92,1.44-36Z"/><path class="cls-1" d="m75.13,103.56h30.9c1.2,10.2,9,22.2,10.8,36h-25.92c.6-5.7.78-9,.78-11.46,0-2.22-.96-3.66-2.64-3.66s-2.64,1.44-2.64,3.66c0,2.46.24,5.76.78,11.46h-21.06c1.8-13.92,10.8-25.86,9-36Zm13.92,15.24c1.86,0,2.64-1.74,2.64-4.02,0-2.76-.66-5.1-2.52-5.1s-2.64,2.34-2.64,5.1c0,2.28.6,4.02,2.52,4.02Z"/><path class="cls-1" d="m148.15,114.84c-2.28,0-3.6,1.02-3.6,3.36,0,4.98,2.7,11.94,3.48,21.36h-24.9c.78-9.9,3.48-16.2,3.48-21.36,0-2.34-1.14-3.36-3.48-3.36s-5.7.78-8.4,1.8l-.6-13.08h42.9l-.6,13.08c-2.4-1.02-5.82-1.8-8.28-1.8Z"/><path class="cls-1" d="m189.13,103.56h22.92c.18,7.08-2.88,14.22-2.88,18.9,0,1.8,1.08,3,3.72,3,4.2,0,9.96-1.56,14.76-3.48l.72,17.58h-39.24c1.8-13.8,1.8-25.8,0-36Z"/><path class="cls-1" d="m267.9,70.87h58v17c-5.04-1.66-7.76-4.15-13.52-4.15-4.54,0-8.48.27-8.48,2.15,0,1.44-1.8,18,0,18,2.88,0,15.88-5,22-5v16h-22c-1.51,0,0,10.63,0,12,0,1.8,10,1,10,1,5.04,0,6.24-1.56,12-3v16l-42.47-.31c11.47-43.69-15.53-28.69-15.53-69.69Z"/><path class="cls-1" d="m180.99,139.4h-19.68c1.57-13.32,2.6-15.14,1.03-24.99h19.68c1.88,6.82.85,19.31-1.03,24.99Z"/><path class="cls-1" d="m181.03,107.03c0-4.25-3.6-6.03-8.32-6.03-5.71,0-10.56,1.51-10.56,5.76,0,4.39,4.85,6.03,10.56,6.03,4.72,0,8.32-1.37,8.32-5.76Z"/><path class="cls-1" d="m259.77,102.36c-6.61,0-13.56.64-19.9.98-.86-.11-1.74-.12-2.6-.12-4.96,0-9.93-.02-14.89-.02l-1.05,7.7c-.56,3.57.39,4.53,1.9,5.74,1.17.93,2.71.83,4.13.7,2.33-.22,4.67-.44,7-.66.22,7.34-.19,15.45-1.24,23.48,3.42-.42,7.8-.6,12.42-.6s9.48.6,18.3.6c10.02,0,15.6-6.54,15.6-18.3s-6.18-19.5-19.68-19.5Zm-4.02,21.48c-1.74,0-3-1.74-3-4.68,0-4.08,1.26-6,3-6,1.62,0,3.12,1.92,3.12,6,0,2.94-1.5,4.68-3.12,4.68Z"/></svg>