<?xml version="1.0" encoding="UTF-8"?><svg id="Layer_6" xmlns="http://www.w3.org/2000/svg" viewBox="0 0 195.59 226.77"><defs><style>.cls-1{fill:#7b3435;}.cls-1,.cls-2,.cls-3,.cls-4,.cls-5{stroke-width:0px;}.cls-2{fill:#5b1f1f;}.cls-3{fill:#fac3a6;}.cls-4{fill:#f29072;}.cls-5{fill:#d33d3c;}</style></defs><path class="cls-2" d="m27.87,152.88c5.11,5.7,78.57,36.69,86.85,51.53l-10.61,20.07-10.16-23.26-22.52,9.11-3.67-23.11-20.79,12.05-3.04-23.44-28.08,8.86,12.02-31.8Z"/><path class="cls-5" d="m86.3,21.43c-5.11,4.09-55.68,142.9-55.68,142.9l84.1,40.07L187.56,50.07l-101.26-28.64Z"/><path class="cls-5" d="m24.12,68.61l23.27,4.81,14.42,76.17s-1.55-49.41-1.27-74.15c.16-13.68-8.16-40.74-9.87-40.74-4.81,0-33.15,4.24-34.67,4.4s8.11,29.51,8.11,29.51Z"/><path class="cls-4" d="m23.79,163.67S60.22,63.48,53.06,39.96s36.82,103.8,38.87,121.96c0,0,60.71-117.67,63.78-120.39,3.07-2.72,31.85,8.54,31.85,8.54l-72.83,154.33-90.93-40.73Z"/><polygon class="cls-2" points="16.02 39.09 .33 44.06 10.95 51.4 1.59 58.23 14.75 61.52 8.17 67.34 24.12 68.61 16.02 39.09"/><path class="cls-2" d="m86.3,21.43L92.94-.48l.51,17.21,12.99-15.18s5.23,19.23,5.73,18.47,19.23-15.18,19.23-15.18l5.57,18.98,15.44-14.17,7.09,21.51,21.26-14.42-2.02,17.97,15.72-9.98-6.9,25.35-101.26-28.64Z"/><polygon class="cls-1" points="187.51 50.47 195.26 34.05 182.24 41.19 178.69 24.71 169.53 36.86 162.69 23.66 154.01 43.03 187.51 50.47"/><path class="cls-3" d="m161.1,105.53l10.33-21.89-.19.07-48.81,18.87c-3.58,6.85-7.14,13.67-10.49,20.11l48.97-17.1.18-.06Z"/><path class="cls-3" d="m84.3,132.34c-1.29-4.25-2.69-8.76-4.16-13.42l-1.7.66-45.82,17.71c-1.86,5.69-3.57,10.74-4.98,14.83l54.96-19.19,1.7-.59Z"/><path class="cls-3" d="m157.88,112.35c-11.61,3.81-29.84,9.98-49.19,16.6-.75,1.44-1.48,2.84-2.19,4.22l49.12-16.04,2.26-4.78Z"/><path class="cls-3" d="m85.66,136.85c-27.11,9.32-52.11,17.98-59.88,20.64-.3.86-.57,1.62-.81,2.29l61.53-20.09c-.27-.93-.55-1.88-.84-2.85Z"/></svg>