<?xml version="1.0" encoding="UTF-8"?><svg id="Layer_5" xmlns="http://www.w3.org/2000/svg" width="48.2mm" height="48.42mm" viewBox="0 0 136.63 137.26"><defs><style>.cls-1{fill:#5fdd9d;stroke-width:0px;}</style></defs><polygon class="cls-1" points="100.04 35.37 95.76 37.45 91.85 39.49 88 41.67 84.84 44.79 80.68 48.01 78.99 52.89 81.7 57.6 85.07 61.62 89.1 65.02 94.35 67.17 98.84 67.45 99.95 63.2 100.12 58.52 100.68 53.9 101.63 49.33 102.51 44.75 102.07 40.08 102.76 38.03 100.04 35.37"/><polygon class="cls-1" points="104.35 29.51 102.56 32.12 102.27 35.15 104.6 36.56 106.12 36.4 108.22 34.8 108.51 31.23 107.11 30.1 104.35 29.51"/><path class="cls-1" d="m136.15,62.72l-1.36-12.28,1.83-12.28-1.3-12.28-.28-12.28,1.18-12.97-12.94.49-12.25.71L98.8.11l-12.24-.04-12.24,1.94-12.24.31-12.24-1.66h-12.24s-12.24-.45-12.24-.45l-12.24-.2L1.33,1.79.28,13.61l.2,12.29.44,12.28-.11,12.28L.05,62.73l.7,12.28.64,12.28-.2,12.28.69,12.28.22,12.28-2.09,13.15,13.12-1.41,12.25-.77,12.24,1.19,12.24-.77,12.24,1.09,12.24-1.25,12.24,1.31,12.24.15,12.24-.08,12.24.22,11.68-1.13.8-11.72.23-12.28-1.03-12.28-.74-12.28.09-12.27,1.83-12.28Zm-115.16-15l-2.2-4.45-1.74-4.65-2.14-4.35,2.53,4.21,2.55,4.32,2.67,4.25,1.73,4.79,2.53,4.33,2.98,4.08,2.34,4.43,2.01,4.61,2.65,4.27,1.72,4.71,1.59,4.54,1.85,4.45,1.62,4.54,1.04,4.71,1.18,4.64-3.74-3.79-4.15-3.3-1.1-4.72-1.07-4.86-2.09-4.52-1.52-4.72-1.67-4.67-1.72-4.65-1.79-4.63-2.02-4.53-2.03-4.52-2.04-4.52Zm35.86,61.9l-6.21.73,1.46,6.74-2.91-3.63-4.43-1.7-2.06,6.43-1.28-3.92-2.52-2.61-4.6.69-4.08,1.61,2.8-3.36.74-4.17-4.24-2.11-4.75-1.42,4.43-.4,4.37.15,4.26-.19,3.2,3.16,3.86,2.77,4.13-1.94,3.87-2.22,4.1,1.8,2.82,2.74,2.97,2.42-5.93-1.56Zm13.8-46.27l-4.33,4.34-3.34,4.06-3.72,3.78-3.05,4.32-2.35,4.75-2.31,4.72-1.72,4.96-1.98,5.08-.99-4.81-.98-4.64-1.34-4.75,2.64-3.91,3.14-4.16,3.49-3.87,3.63-3.74,3.63-3.76,4.53-2.67,4.21-3.07,4.31-1.12,1.72,1.25-5.19,3.24Zm51.65-11.46l-1.94,4.87-2.95,4.27-3.66,3.64-4.12,3.26-4.99,1.73-5.25.31-5.31-.04-4.72-2.44-4.55-2.55-3.81-3.62-2.94-4.39-1.62-5.03-.16-5.24-.11-5.3,2.4-4.73,2.3-4.74,3.68-3.85,4.68-2.5,5.04-1.37,5.14-1.45,5.28.8,4.73,2.35,4.48,2.62,4.21,3.26,2.72,4.6,1.09,5.18.99,5.14-.59,5.23Z"/><polygon class="cls-1" points="118.72 37.3 116.25 34.8 110.7 31.08 110.42 34.44 109.21 37.26 111.31 41.5 114.44 45.25 115.89 50.61 116.9 56.04 117.23 57.81 118.37 54.09 120.2 48.82 120.86 44.1 119.72 40.69 118.72 37.3"/><polygon class="cls-1" points="95.44 30.22 100.89 31.52 101.38 30.65 102.03 29.23 103.46 28.25 104.79 27.78 105.78 28.04 105.45 26.24 102.32 25.72 99.04 25.87 94.53 26.43 91.04 27.46 88.05 29.49 86.6 30.9 90.96 30.34 95.44 30.22"/></svg>