<?xml version="1.0" encoding="UTF-8"?><svg id="Layer_3" xmlns="http://www.w3.org/2000/svg" width="48.42mm" height="48.2mm" viewBox="0 0 137.26 136.63"><defs><style>.cls-1{fill:#99beda;stroke-width:0px;}</style></defs><path class="cls-1" d="m134.95,62.08l1.66-12.24v-12.24s.45-12.24.45-12.24l.2-12.24-1.79-11.78-11.81-1.05-12.29.2-12.28.44-12.28-.11L74.53.05l-12.28.7-12.28.64-12.28-.2-12.28.69-12.28.22L0,0l1.41,13.12.77,12.25-1.19,12.24.77,12.24-1.09,12.24,1.25,12.24-1.31,12.24-.15,12.24.08,12.24-.22,12.24,1.13,11.68,11.72.8,12.28.23,12.28-1.03,12.28-.74,12.27.09,12.28,1.83,12.28-1.36,12.28,1.83,12.28-1.3,12.28-.28,12.97,1.18-.49-12.94-.71-12.25,1.74-12.24.04-12.24-1.94-12.24-.31-12.24ZM25.74,33.13l1.16-2.13,1-2.19,1.16-2.03,1.85-1.4,1.94-1.14,2.34-.75,2.5-.42,2.8-1.06,2.95-.69,2.3.75h2.36s1.91.27,1.91.27l1.81.82,1.85.67,1.93.43,1.61,1.52,1.08,2,2.16,1.16.8,2.91-.27,3.05.8,1.84-.04,1.95-.31,2.11.17,2.17-.35,2.11-.62,2.86-1.12,2.58-1.6,2.38-2.56,1.43-1.21,1.67-1.85.8-2.95.55-2.96-.73-2.35-.44-2.37.08-2.37.11h-2.84s-2.87-.12-2.87-.12l-2.19-1.72-2.44-1.41-.64-2.69-.76-2.59-.7-2.3-1.62-1.98-.2-2.53.28-2.49-.33-2.74.8-2.66Zm36.83,81.98l-4.96.21-4.96-.22-4.96-.07-4.96-.32-4.97.63-4.96-.06-4.95-.57-5.32-.46.53-4.75.23-4.76v-4.76s.05-4.77.05-4.77l.8-4.73-.54-4.8.25-4.76,1.45-4.64.41-4.78,3.53-3.15,3.82-2.76,3.85-3.02,5.44.19,5.38.23,5.27.79,4.31,2.8,3.1,4.37,3.17,4.32.82,5.02,1.51,4.84v5.06s.1,5.02.1,5.02l.53,4.98.5,4.98.38,5,.18,5.1-5.04-.16Zm58.03-62.69l-4.07,1.46-4.16,1.32-4.35-.2-4.31.19-4.28,1.24-4.16-.7-4.05-1.17-5.5-.22-3.75,4.35-3.36,2.2-4.02,2.38-3.62-.92,4.7-.75,1.32-4.87,1.11-3.32-5.53.16-3.05-5.66.76-4.39-.66-4.22.89-7.3,5.74-3.78,4.1-.57,4.06-.18,4.01-.23,4.9-.13,4.93-.77,4.93.69,5.73-.16,5.71-.06,4.33,5.33.92,3.7,1.18,3.65-.85,6.17.38,6.77Z"/></svg>