<?xml version="1.0" encoding="UTF-8"?><svg id="Layer_4" xmlns="http://www.w3.org/2000/svg" width="48.42mm" height="48.2mm" viewBox="0 0 137.26 136.63"><defs><style>.cls-1{fill:#ff6d40;stroke-width:0px;}</style></defs><polygon class="cls-1" points="72.17 62.21 74.87 58.15 72.43 57.19 70.24 61.35 68.37 65.63 65.77 69.48 66.8 70.4 69.32 66.17 72.17 62.21"/><polygon class="cls-1" points="73.26 63.42 70.79 66.95 67.94 70.51 71.15 70.67 75.11 68.88 77.2 66.44 77.36 62.15 75.85 60.01 73.26 63.42"/><polygon class="cls-1" points="69.06 61.17 71.01 57.29 67.52 56.92 63.66 59.26 62.89 62.89 63.81 67.76 65.2 69.02 66.96 64.97 69.06 61.17"/><polygon class="cls-1" points="49.1 38.22 46.53 39.01 46.43 41.81 51.22 42.26 54.77 41.42 55.99 39.74 56.25 38.2 52.53 37.84 49.1 38.22"/><path class="cls-1" d="m80.15,54.91l-2.98-1.81-1.7-1.93-2.28-.87-4.69.85-3.94,1.64-2.33,1.69-2.43,2.06-2.3,1.92-.65,3.52.16,3.3.31,3.72,1.8,2.97,2.28,2.05,3.67,1.76,4.35.09,5.3-.54,3.83-.99,2.69-4.45,1.03-3.04.27-3.31-.48-4.28-1.91-4.39Zm-.52,12.03l-2.46,4.43-4.35,1.74-2.77.88-3.87-.95-3.78-.95-2.02-3.63-.16-3.84-.51-3.36,1.42-1.85,2.01-2.48,1.57-.64,2.23-1.51,2.99-.34,2.69-.19,2.58.21,2.04,2.57,2.09,3.88,1.08,2.87-.78,3.16Z"/><path class="cls-1" d="m134.95,62.08l1.66-12.24v-12.24s.45-12.24.45-12.24l.2-12.24-1.79-11.78-11.81-1.05-12.29.2-12.28.44-12.28-.11L74.53.05l-12.28.7-12.28.64-12.28-.2-12.28.69-12.28.22L0,0l1.41,13.12.77,12.25-1.19,12.24.77,12.24-1.09,12.24,1.25,12.24-1.31,12.24-.15,12.24.08,12.24-.22,12.24,1.13,11.68,11.72.8,12.28.23,12.28-1.03,12.28-.74,12.27.09,12.28,1.83,12.28-1.36,12.28,1.83,12.27-1.3,12.28-.28,12.97,1.18-.49-12.94-.71-12.25,1.74-12.24.04-12.24-1.94-12.24-.31-12.24ZM68.37,26.44l1.18,2.04-4.44,3.65-4.61,2.94,3.96-4.05,3.91-4.58Zm-11.93.36l1.88-5.68h4.05s-2.53,3.81-2.53,3.81l-2.22,3.87-2.1,3.68.92-5.68Zm-3.71-7.49l-1.33,5.81-.94,6.17-1.06-6.09-.48-5.97,3.8.08Zm-11.82,1.22l1.47,4.29,1.79,4.12,1.35,4.65-2.61-4.02-2.28-3.81-1.66-3.95,1.94-1.29Zm-6.98,9.67l-3.44-3.06,2.1-1.36,2.69,3.48,2.79,3.47,3.32,3.38-3.54-3.39-3.91-2.52Zm29.83,57.7l-2.43,4.34-2.15,4.48-2.28,4.41-1.82,4.64-2.07,4.52-2.53,4.29-2.12,4.37-3.7-.84,1.97-4.22,1.94-4.5,2.6-4.16,2.03-4.45,2.11-4.4,2.68-4.12,2.12-4.4,1.97-4.54,3.61.19-1.92,4.38Zm25.55,29.88l-1.96-4.16-2.44-4.16-1.59-4.55-2.1-4.31-2.44-4.15-1.56-4.57-2.65-4.06-1.95-4.55,4.37.3,1.82,4.23,2.26,4.19,2.16,4.23,1.32,4.6,2.35,4.15,2.03,4.3,1.49,4.53,2.12,4.41-3.23-.42Zm12.37-58.94l-.46,5,.27,5-.17,5,.3,5.09-4.94-.15h-4.85s-4.84-.16-4.84-.16l-4.84.43-4.84-.46-4.84.41-4.84.2-4.84-.6-4.84-.15-4.84.74-4.84-.5-4.84-.08-4.86.29.05-4.92-.22-4.88.31-4.89.27-4.88-.33-4.88-.16-4.88.09-4.44,6.88-.43-.61-2.44.32-4.67,3.69-.66,3.66-.53,4.34.51.05,4.18-.18,3.17,4.92.42,5,.03,4.98-.44,4.98.05,4.98-.46,4.99.47,4.97-.65,4.99.54,5.16-.55-.09,5.19-.22,5.01.28,5Z"/><polygon class="cls-1" points="96.01 46.63 93.84 46.78 90.48 46.34 88.64 47.44 88.23 49.07 88.39 50.57 90.13 51.43 92.42 51.67 94.41 51.44 96.08 51.36 97.31 49.65 98.13 48.27 97.79 47.15 96.01 46.63"/></svg>