<?xml version="1.0" encoding="UTF-8"?><svg id="Layer_2" xmlns="http://www.w3.org/2000/svg" width="48.2mm" height="48.42mm" viewBox="0 0 136.63 137.26"><defs><style>.cls-1{fill:#010101;}.cls-1,.cls-2{stroke-width:0px;}.cls-2{fill:none;}</style></defs><path class="cls-2" d="m24.51,42.17l-.21,4.91.43,4.9-.24,4.91.7,4.9-.43,4.92.58,4.9.11,4.9-.59,5.2h5.4s5.12.02,5.12.02l5.12-.73,5.12.86,5.12-.04,5.12-.41,5.12-.23,5.12.6,5.12-.34,5.11-.49,5.12.18,5.11.17,5.12-.1,5.12-.27,5.12.18,5.11-.02,5.46.68-.16-5.27-.5-4.92.62-4.91-.64-4.91.83-4.91-.05-4.91-.06-4.91-.86-4.91.2-4.91.58-4.9-.49-4.73-5.01-.35-5.18.53-5.18-.53-5.18.33-5.18-.12-5.18.34-5.18-.54-5.18.17-5.17.34-5.17-.18-5.18-.18-5.17.11-5.18-.59-5.18.75-5.18-.37-5.17.22h-5.05s.24,4.8.24,4.8l-.3,4.92.31,4.91Zm7.33,2.1l1.54-2.72,1.94-2.66,5.9-.65,2.55,4.29-1.02,3.68-2.69,3.03-3.88.08-3.32-1.66-1.02-3.38Zm31.06,26.74l-4.96.81-4.96.02-4.96-.09-4.96-.35-4.96-.28-4.87.14-.02-2.03,4.88-.29,4.96-.35,4.96.69,4.96-.15,4.96-.17,4.96.05,4.91.17.04,2.26-4.94-.42Zm.54-5.8l-5.05.06-5.05.47-5.05-.63-5.05.65-5.05.11-5.07-.29.14-1.88,4.94-.58,5.06.44,5.05-.34,5.05.28,5.05-.26,5.05.29,5.16-.36.06,2.76-5.22-.72Zm5.57-5.13l-5.01-.08-5.14.9-5.14-.42-5.14-.53-5.14.68-5.15-.45-5.06.07-.12-2.47,5.16.37,5.15-.25,5.13.53,5.14.15,5.15-.36,5.15.16h5.19s-.17,1.7-.17,1.7Zm1.06-4.72l-5.26-.38h-5.28s-5.28.71-5.28.71l-5.28-.07-5.28.04-5.28-.45-5.37.67.11-1.53,5.28.23,5.28-.41,5.26-.82,5.29.43,5.29.05,5.27-.47,5.34-.35-.1,2.34Zm36.33,10.21l-.08,5.43.54,5.57-5.4.18-5.27-.39-5.27-.73-5.28-.07-5.27.52-4.95.62-.9-5.61.54-5.46.05-5.46-.42-5.46.37-5.45-.31-5.45-.61-5.86,5.43.93,5.44-.24,5.44-.09,5.43-.48,5.43.05,5.43.56-.24,5.14.62,5.43-.31,5.44.58,5.44-.99,5.42ZM32.28,29.42l5.14-.34,5.14.18,5.13.18,5.14-.11,5.14.59,5.14-.75,5.14.37,5.13-.22,5.13-.06,5.13.3,5.13.35,5.13-.16,5.13-.15,5.13-.25,5.33-.17-.98,3.9-4.94.06-5.09-.27-5.1.21-5.1-.66-5.1-.17-5.1.87-5.1-.27-5.1-.28-5.1.57-5.1-.23-5.09.2-5.09-.3-5.09-.05-5.09.48-5.09-.14-4.89-.27-.2-3.39h5.14Z"/><polygon class="cls-2" points="28.62 102.31 33.77 102.49 38.91 102.55 44.05 102.37 49.19 102.22 54.33 102.91 59.47 102.56 64.61 102.25 69.75 102.47 74.89 102.65 80.03 102.5 85.17 102.52 90.31 101.97 95.45 102.2 100.59 102.11 105.73 101.97 110.86 102.78 116 102.36 121.26 102.52 118.78 98.31 117.38 93.73 114.65 89.8 112.62 85.77 107.66 85.01 102.49 85.06 97.33 85.54 92.17 85.03 87.01 85.84 81.86 85.45 76.7 85.45 71.54 85.7 66.38 85.16 61.23 85.91 56.07 85.1 50.92 85.55 45.77 85.67 40.61 85.23 35.45 85.65 30.3 85.66 25.17 85.48 23.17 89.57 21.38 93.79 19.69 98.05 18.67 102.15 23.47 102.4 28.62 102.31"/><polygon class="cls-2" points="115.99 105.56 110.84 105.64 105.7 105.46 100.56 105.14 95.42 105.51 90.27 105.63 85.13 105.42 79.99 104.89 74.85 105.59 69.71 105.44 64.57 105.54 59.44 105.39 54.3 104.96 49.16 104.79 44.02 105.26 38.88 104.69 33.74 105.43 28.6 105.07 23.46 104.86 18.39 105.27 18.34 108.52 23.47 108.51 28.62 108.26 33.77 108.8 38.91 108.06 44.05 108.87 49.19 108.42 54.33 108.29 59.47 108.73 64.61 108.31 69.75 108.3 74.89 108.48 80.03 108.13 85.17 108.88 90.31 108.64 95.45 108.56 100.59 108.41 105.73 108.56 110.86 108.28 116 108.95 121.38 108.9 120.96 105.44 115.99 105.56"/><polygon class="cls-1" points="32.23 33.09 37.33 33.23 42.42 32.75 47.51 32.8 52.61 33.1 57.7 32.9 62.8 33.13 67.89 32.57 73 32.84 78.1 33.11 83.19 32.24 88.29 32.41 93.39 33.08 98.49 32.86 103.58 33.14 108.52 33.07 109.5 29.18 104.17 29.35 99.03 29.6 93.9 29.75 88.76 29.91 83.64 29.55 78.5 29.25 73.37 29.31 68.24 29.53 63.1 29.17 57.97 29.92 52.83 29.32 47.7 29.43 42.56 29.25 37.42 29.07 32.28 29.42 27.14 29.43 27.35 32.83 32.23 33.09"/><polygon class="cls-1" points="40.06 49.23 42.75 46.2 43.76 42.52 41.22 38.24 35.31 38.89 33.37 41.55 31.84 44.27 32.86 47.65 36.18 49.3 40.06 49.23"/><polygon class="cls-1" points="107.11 49.27 106.49 43.83 106.74 38.69 101.3 38.12 95.87 38.07 90.44 38.56 85 38.64 79.57 38.88 74.14 37.95 74.75 43.81 75.06 49.27 74.69 54.72 75.11 60.18 75.06 65.64 74.52 71.09 75.42 76.71 80.37 76.09 85.64 75.57 90.92 75.64 96.19 76.37 101.46 76.75 106.86 76.58 106.32 71.01 106.4 65.58 107.38 60.15 106.8 54.71 107.11 49.27"/><polygon class="cls-1" points="59.55 53.84 54.27 53.79 48.97 53.36 43.71 54.18 38.44 54.58 33.15 54.36 33.04 55.89 38.42 55.22 43.69 55.67 48.97 55.63 54.25 55.69 59.53 54.98 64.81 54.98 70.07 55.36 70.17 53.02 64.82 53.37 59.55 53.84"/><polygon class="cls-1" points="58.85 58.22 53.7 58.58 48.56 58.43 43.42 57.9 38.28 58.15 33.11 57.78 33.23 60.25 38.29 60.19 43.43 60.64 48.58 59.96 53.72 60.49 58.86 60.9 64 60 69.01 60.08 69.18 58.38 63.99 58.38 58.85 58.22"/><polygon class="cls-1" points="63.45 63.53 58.4 63.24 53.35 63.5 48.3 63.22 43.25 63.56 38.19 63.12 33.25 63.71 33.12 65.58 38.19 65.87 43.24 65.76 48.29 65.11 53.33 65.74 58.39 65.27 63.44 65.21 68.66 65.93 68.61 63.17 63.45 63.53"/><polygon class="cls-1" points="62.89 68.98 57.93 68.93 52.97 69.1 48.01 69.26 43.05 68.57 38.1 68.92 33.22 69.21 33.24 71.24 38.1 71.11 43.07 71.39 48.03 71.74 52.98 71.83 57.94 71.81 62.9 71.01 67.84 71.42 67.8 69.16 62.89 68.98"/><path class="cls-1" d="m136.15,62.72l-1.36-12.28,1.83-12.28-1.3-12.28-.28-12.28,1.18-12.97-12.94.49-12.25.71L98.8.11l-12.24-.04-12.24,1.94-12.24.31-12.24-1.66h-12.24s-12.24-.45-12.24-.45l-12.24-.2L1.33,1.79.28,13.61l.2,12.29.44,12.28-.11,12.28L.05,62.73l.7,12.28.64,12.28-.2,12.28.69,12.27.22,12.28-2.09,13.15,13.12-1.41,12.25-.77,12.24,1.19,12.24-.77,12.24,1.09,12.24-1.25,12.24,1.31,12.24.15,12.24-.08,12.24.22,11.68-1.13.8-11.72.23-12.28-1.03-12.28-.74-12.28.09-12.27,1.83-12.28ZM24.26,27.55h5.05s5.17-.23,5.17-.23l5.18.37,5.18-.75,5.18.59,5.17-.11,5.18.18,5.17.18,5.17-.34,5.18-.17,5.18.54,5.18-.34,5.18.12,5.18-.33,5.18.53,5.18-.53,5.01.35.49,4.73-.58,4.9-.2,4.91.86,4.91.06,4.91.05,4.91-.83,4.91.64,4.91-.62,4.91.5,4.92.16,5.27-5.46-.68-5.11.02-5.12-.18-5.12.27-5.12.1-5.11-.17-5.12-.18-5.11.49-5.12.34-5.12-.6-5.12.23-5.12.41-5.12.04-5.12-.86-5.12.73-5.12-.03h-5.4s.59-5.19.59-5.19l-.11-4.9-.58-4.9.43-4.92-.7-4.9.24-4.91-.43-4.9.21-4.91-.31-4.91.3-4.92-.24-4.79Zm-4.57,70.49l1.69-4.26,1.79-4.22,2.01-4.09,5.13.18h5.16s5.16-.43,5.16-.43l5.16.44,5.16-.13,5.15-.45,5.16.81,5.15-.75,5.16.54,5.16-.25h5.16s5.16.39,5.16.39l5.16-.81,5.16.51,5.16-.49,5.16-.05,4.96.76,2.03,4.02,2.73,3.93,1.4,4.59,2.49,4.2-5.26-.16-5.14.42-5.14-.81-5.14.14-5.14.09-5.14-.23-5.14.55h-5.14s-5.14.14-5.14.14l-5.14-.18-5.14-.22-5.14.31-5.14.35-5.14-.69-5.14.15-5.14.17-5.14-.05-5.14-.19-5.15.09-4.8-.25,1.02-4.1Zm96.31,10.9l-5.14-.66-5.14.28-5.14-.15-5.14.15-5.14.08-5.14.23-5.14-.75-5.14.35-5.14-.18h-5.14s-5.14.43-5.14.43l-5.14-.44-5.14.13-5.14.45-5.14-.81-5.14.75-5.14-.54-5.15.25h-5.14s.05-3.24.05-3.24l5.08-.4,5.14.21,5.14.35,5.14-.74,5.14.57,5.14-.48,5.14.18,5.14.43,5.14.15,5.14-.09,5.14.14,5.14-.7,5.14.53,5.14.21,5.14-.12,5.14-.37,5.14.33,5.14.18,5.15-.08,4.97-.12.42,3.46-5.38.05Z"/></svg>