<?xml version="1.0" encoding="UTF-8"?><svg id="Layer_5" xmlns="http://www.w3.org/2000/svg" xmlns:xlink="http://www.w3.org/1999/xlink" viewBox="0 0 76.54 229.61"><defs><style>.cls-1{fill:#dce5cc;opacity:.54;}.cls-1,.cls-2{stroke-width:0px;}.cls-2{fill:url(#linear-gradient);}</style><linearGradient id="linear-gradient" x1="39.01" y1="205.64" x2="35.57" y2="68.85" gradientUnits="userSpaceOnUse"><stop offset="0" stop-color="#4577bb"/><stop offset=".09" stop-color="#457bbe" stop-opacity=".92"/><stop offset=".47" stop-color="#468dcb" stop-opacity=".58"/><stop offset=".75" stop-color="#4798d3" stop-opacity=".38"/><stop offset=".9" stop-color="#489dd7" stop-opacity=".3"/></linearGradient></defs><path class="cls-2" d="m36.19,1.42C34.1,5.65,0,100.26,0,163.38c0,35.16,2.09,60.94,27.84,64.08,20.78,2.53,31.32-1.41,38.28-13.08,6-10.06,16.7-14.42,5.57-71.93C65.51,110.55,36.19,1.42,36.19,1.42Z"/><path class="cls-1" d="m10.06,129.82s-1.64,49.68,0,59.29c2.09,12.21,4.18,26.31,6.96,24.2s4.87-30.3,5.57-36.66c.7-6.36-12.62-44.7-12.62-44.7l.09-2.13Z"/></svg>